<?xml version="1.0" standalone="no"?>
<!DOCTYPE svg PUBLIC "-//W3C//DTD SVG 20010904//EN"
 "http://www.w3.org/TR/2001/REC-SVG-20010904/DTD/svg10.dtd">
<svg version="1.0" xmlns="http://www.w3.org/2000/svg"
 width="4178.000000pt" height="834.000000pt" viewBox="0 0 4178.000000 834.000000"
 preserveAspectRatio="xMidYMid meet">

<g transform="translate(0.000000,834.000000) scale(0.100000,-0.100000)"
fill="#000000" stroke="none">
<path d="M0 4320 l0 -4020 150 0 150 0 0 -150 0 -150 20740 0 20740 0 0 4020
0 4020 -150 0 -150 0 0 150 0 150 -20740 0 -20740 0 0 -4020z m41180 0 l0
-3720 -20440 0 -20440 0 0 3720 0 3720 20440 0 20440 0 0 -3720z"/>
<path d="M5515 6500 c-117 -21 -196 -63 -272 -142 -64 -68 -99 -136 -114 -223
-23 -133 20 -272 115 -369 119 -122 314 -173 509 -131 141 30 258 123 320 252
30 65 32 74 32 188 0 110 -2 124 -27 175 -15 30 -41 72 -58 92 -43 52 -141
115 -218 138 -76 24 -214 33 -287 20z"/>
<path d="M25820 4380 l0 -1900 395 0 395 0 0 1900 0 1900 -395 0 -395 0 0
-1900z"/>
<path d="M32590 5613 l0 -667 -47 45 c-142 135 -329 226 -542 263 -118 20
-343 21 -471 1 -451 -68 -815 -335 -1004 -736 -95 -201 -130 -376 -130 -659 0
-297 35 -465 144 -685 184 -375 531 -634 950 -712 118 -21 409 -24 520 -4 218
39 411 134 551 272 34 32 63 59 65 59 2 0 4 -70 4 -155 l0 -155 380 0 380 0 0
1900 0 1900 -400 0 -400 0 0 -667z m-527 -1009 c40 -8 115 -36 167 -62 129
-63 215 -149 283 -283 70 -139 90 -224 90 -394 1 -168 -21 -274 -83 -398 -53
-104 -88 -152 -158 -210 -156 -131 -375 -189 -579 -153 -201 35 -351 130 -462
295 -91 133 -127 289 -118 508 8 208 51 335 157 463 94 112 235 202 365 234
81 20 249 20 338 0z"/>
<path d="M2790 6109 c-395 -45 -798 -217 -1079 -461 -232 -201 -431 -499 -520
-779 -145 -460 -111 -1007 89 -1415 179 -364 472 -654 845 -834 186 -90 358
-142 585 -177 161 -24 530 -24 690 0 395 62 724 180 1001 361 l99 66 0 730 0
730 -375 0 -375 0 0 -529 0 -528 -68 -31 c-330 -147 -762 -156 -1083 -23 -239
100 -438 292 -554 536 -147 310 -140 767 15 1069 195 380 577 596 1050 596
332 0 630 -119 872 -348 l57 -54 64 58 c35 33 154 142 264 244 l201 184 -40
47 c-57 68 -184 174 -299 251 -248 165 -551 271 -884 308 -106 12 -448 11
-555 -1z"/>
<path d="M10500 4270 l0 -1790 410 0 410 0 0 454 0 454 236 246 c130 135 239
246 243 246 4 0 263 -313 575 -696 313 -382 574 -698 580 -700 6 -2 223 -3
483 -2 l472 3 -672 850 c-370 468 -722 914 -783 991 l-112 141 637 685 c350
377 683 735 740 797 l103 111 -458 0 -459 0 -790 -832 -790 -833 -3 833 -2
832 -410 0 -410 0 0 -1790z"/>
<path d="M6860 5505 l0 -335 -215 0 -215 0 0 -305 0 -305 214 0 215 0 3 -677
4 -678 26 -95 c35 -129 68 -208 122 -289 118 -177 313 -298 568 -352 85 -19
136 -23 293 -23 200 0 292 12 426 55 73 23 205 87 220 105 8 9 -18 88 -91 281
-57 147 -104 271 -106 275 -2 3 -34 -9 -72 -28 -130 -67 -284 -79 -406 -34
-69 26 -135 95 -167 176 l-24 59 -3 613 -3 612 346 0 345 0 0 305 0 305 -342
2 -343 3 -3 333 -2 332 -395 0 -395 0 0 -335z"/>
<path d="M15665 5263 c-260 -34 -492 -137 -662 -296 l-63 -59 0 161 0 161
-380 0 -380 0 0 -1375 0 -1375 400 0 399 0 3 788 3 787 28 90 c35 113 75 182
152 260 114 116 279 178 470 178 240 0 396 -86 485 -267 75 -152 73 -124 77
-1028 l4 -808 395 0 395 0 -4 918 c-3 898 -4 919 -25 1012 -110 483 -399 761
-876 845 -82 14 -337 19 -421 8z"/>
<path d="M18835 5264 c-214 -32 -376 -80 -530 -156 -247 -124 -428 -287 -569
-512 -135 -215 -196 -443 -196 -736 0 -245 38 -424 130 -617 68 -143 138 -241
260 -363 156 -157 342 -274 551 -348 372 -131 862 -118 1221 33 377 159 659
458 783 828 53 160 69 266 69 467 -1 201 -17 309 -69 467 -69 206 -157 347
-319 509 -206 207 -452 338 -761 404 -82 18 -140 23 -320 25 -121 2 -233 1
-250 -1z m373 -660 c207 -42 389 -191 479 -392 63 -141 81 -379 43 -562 -62
-304 -285 -512 -590 -551 -367 -47 -687 175 -777 539 -24 97 -24 331 0 437 88
384 449 610 845 529z"/>
<path d="M28355 5254 c-606 -93 -1080 -540 -1181 -1113 -90 -515 76 -1019 436
-1325 294 -249 669 -376 1111 -376 440 0 802 126 1064 371 36 34 65 66 65 71
0 7 -261 295 -396 437 l-23 24 -38 -34 c-95 -85 -244 -165 -378 -200 -126 -33
-358 -38 -495 -9 -128 26 -219 63 -303 123 -111 79 -198 195 -238 315 -12 37
-24 73 -27 80 -3 9 208 12 1037 12 983 0 1042 1 1049 18 12 31 8 393 -6 472
-49 278 -148 495 -311 683 -210 242 -530 409 -874 456 -107 15 -383 12 -492
-5z m438 -600 c188 -43 338 -155 431 -321 33 -60 76 -184 76 -220 0 -10 -137
-13 -680 -13 l-680 0 6 28 c52 223 166 378 344 466 52 25 124 53 160 60 91 20
255 20 343 0z"/>
<path d="M35047 5255 c-556 -90 -973 -472 -1092 -1000 -25 -109 -31 -416 -12
-540 59 -367 249 -666 556 -870 234 -156 479 -225 797 -225 350 0 607 88 819
282 l58 53 -6 -155 c-3 -111 -11 -177 -26 -233 -61 -232 -218 -386 -453 -446
-361 -93 -895 2 -1215 215 -46 31 -85 54 -87 53 -1 -2 -72 -130 -156 -283
l-154 -279 28 -23 c14 -13 65 -46 112 -74 301 -178 739 -280 1204 -280 868 0
1377 356 1510 1057 37 197 40 310 40 1531 l0 1192 -380 0 -380 0 0 -168 0
-169 -83 81 c-129 125 -284 207 -496 263 -84 22 -121 26 -296 29 -141 2 -226
-1 -288 -11z m628 -659 c91 -25 233 -99 296 -155 74 -66 143 -169 176 -261 38
-108 44 -290 14 -411 -29 -114 -73 -198 -148 -279 -149 -161 -330 -227 -592
-217 -199 8 -318 47 -442 147 -169 135 -244 298 -243 525 0 208 47 327 179
461 103 104 231 171 386 204 66 14 304 5 374 -14z"/>
<path d="M38715 5254 c-539 -83 -974 -442 -1136 -937 -112 -341 -85 -764 69
-1081 270 -557 898 -858 1638 -785 288 28 525 109 721 248 79 56 203 168 203
183 0 7 -261 295 -396 437 l-23 24 -38 -34 c-95 -85 -244 -165 -378 -200 -126
-33 -358 -38 -495 -9 -128 26 -219 63 -303 123 -111 79 -198 195 -238 315 -12
37 -24 73 -27 80 -3 9 208 12 1037 12 983 0 1042 1 1049 18 12 31 8 393 -6
472 -49 278 -148 495 -311 683 -210 242 -530 409 -874 456 -107 15 -383 12
-492 -5z m438 -600 c259 -59 449 -256 502 -521 l7 -33 -681 0 -681 0 6 28 c51
222 167 378 347 467 51 25 121 52 157 59 91 20 255 20 343 0z"/>
<path d="M5220 3855 l0 -1375 400 0 400 0 0 1375 0 1375 -400 0 -400 0 0
-1375z"/>
<path d="M20660 5228 c0 -2 222 -619 494 -1373 l494 -1370 384 -3 383 -2 304
817 c168 450 312 835 321 857 l16 38 303 -843 c167 -464 306 -850 309 -857 3
-10 87 -12 390 -10 l386 3 468 1290 c257 710 481 1327 497 1373 l30 82 -352 0
-352 0 -324 -908 c-179 -499 -329 -917 -336 -929 -9 -20 -54 102 -324 870
-173 490 -321 909 -329 930 l-14 37 -337 0 -337 0 -329 -907 c-180 -500 -333
-918 -339 -931 -10 -19 -49 86 -290 780 -154 442 -299 860 -324 931 l-45 127
-373 0 c-206 0 -374 -1 -374 -2z"/>
</g>
</svg>
